{
    "asset" : {
        "generator" : "Khronos glTF Blender I/O v1.5.17",
        "version" : "2.0"
    },
    "scene" : 0,
    "scenes" : [
        {
            "name" : "Scene",
            "nodes" : [
                0
            ]
        }
    ],
    "nodes" : [
        {
            "mesh" : 0,
            "name" : "Cylinder"
        }
    ],
    "meshes" : [
        {
            "name" : "Cylinder",
            "primitives" : [
                {
                    "attributes" : {
                        "POSITION" : 0,
                        "NORMAL" : 1,
                        "TEXCOORD_0" : 2
                    },
                    "indices" : 3
                }
            ]
        }
    ],
    "accessors" : [
        {
            "bufferView" : 0,
            "componentType" : 5126,
            "count" : 1172,
            "max" : [
                9.673112869262695,
                9,
                9.673113822937012
            ],
            "min" : [
                -9.673113822937012,
                -9,
                -9.673114776611328
            ],
            "type" : "VEC3"
        },
        {
            "bufferView" : 1,
            "componentType" : 5126,
            "count" : 1172,
            "type" : "VEC3"
        },
        {
            "bufferView" : 2,
            "componentType" : 5126,
            "count" : 1172,
            "type" : "VEC2"
        },
        {
            "bufferView" : 3,
            "componentType" : 5123,
            "count" : 1248,
            "type" : "SCALAR"
        }
    ],
    "bufferViews" : [
        {
            "buffer" : 0,
            "byteLength" : 14064,
            "byteOffset" : 0
        },
        {
            "buffer" : 0,
            "byteLength" : 14064,
            "byteOffset" : 14064
        },
        {
            "buffer" : 0,
            "byteLength" : 9376,
            "byteOffset" : 28128
        },
        {
            "buffer" : 0,
            "byteLength" : 2496,
            "byteOffset" : 37504
        }
    ],
    "buffers" : [
        {
            "byteLength" : 40000,
            "uri" : "spiked_crusher.bin"
        }
    ]
}
